<?xml version="1.0" encoding="UTF-8"?>
<svg width="16px" height="16px" viewBox="0 0 16 16" version="1.1" xmlns="http://www.w3.org/2000/svg" xmlns:xlink="http://www.w3.org/1999/xlink">
    <title>D518EC75-2E4A-4CF7-BE2B-9761B1EA8588@1x</title>
    <g id="mobile" stroke="none" stroke-width="1" fill="none" fill-rule="evenodd">
        <g id="Homepage" transform="translate(-276.000000, -60.000000)">
            <g id="Group" transform="translate(272.000000, 56.000000)">
                <rect id="Rectangle" x="0" y="0" width="24" height="24"></rect>
                <g id="loupe" transform="translate(4.000000, 4.000000)" fill="#233258" fill-opacity="0.696350524" fill-rule="nonzero">
                    <path d="M15.773848,14.8331228 L11.2327173,10.2919922 C12.1123431,9.20545809 12.6419649,7.82481092 12.6419649,6.32109162 C12.6419649,2.83589864 9.80615984,9.35672515e-05 6.32096686,9.35672515e-05 C2.83577388,9.35672515e-05 0,2.83586745 0,6.32106043 C0,9.80625341 2.83580507,12.6420585 6.32099805,12.6420585 C7.82471735,12.6420585 9.20536452,12.1124366 10.2918986,11.2328109 L14.8330292,15.7739415 C14.9627758,15.9036881 15.1330994,15.9689045 15.3034542,15.9689045 C15.473809,15.9689045 15.6441326,15.9036881 15.7738791,15.7739415 C16.0340273,15.5137934 16.0340273,15.093271 15.773848,14.8331228 Z M6.32099805,11.3113138 C3.56902924,11.3113138 1.33074464,9.07302924 1.33074464,6.32106043 C1.33074464,3.56909162 3.56902924,1.33080702 6.32099805,1.33080702 C9.07296686,1.33080702 11.3112515,3.56909162 11.3112515,6.32106043 C11.3112515,9.07302924 9.07293567,11.3113138 6.32099805,11.3113138 Z" id="Shape"></path>
                </g>
            </g>
        </g>
    </g>
</svg>