<?xml version="1.0" encoding="UTF-8"?>
<svg width="14px" height="14px" viewBox="0 0 14 14" version="1.1" xmlns="http://www.w3.org/2000/svg" xmlns:xlink="http://www.w3.org/1999/xlink">
    <title>7BEBA4A3-CB1A-460A-97D1-4692F6D462FC@1x</title>
    <g id="Symbols" stroke="none" stroke-width="1" fill="none" fill-rule="evenodd">
        <g id="btn/AddButton" transform="translate(-12.000000, -9.000000)" fill="#407BFF" fill-rule="nonzero">
            <g id="plus" transform="translate(12.000000, 9.000000)">
                <path d="M13.2895748,6.29508197 L7.69403177,6.29508197 L7.69403177,0.699410852 C7.69403177,0.313396525 7.38063525,0 6.99449282,0 C6.60847849,0 6.29508197,0.313396525 6.29508197,0.699410852 L6.29508197,6.29508197 L0.699410852,6.29508197 C0.313396525,6.29508197 -9.31859326e-16,6.60847849 -9.31859326e-16,6.99449282 C-9.31859326e-16,7.38063525 0.313396525,7.69403177 0.699410852,7.69403177 L6.29508197,7.69403177 L6.29508197,13.2895748 C6.29508197,13.6757172 6.60847849,13.9891137 6.99449282,13.9891137 C7.38063525,13.9891137 7.69403177,13.6757172 7.69403177,13.2895748 L7.69403177,7.69403177 L13.2895748,7.69403177 C13.6757172,7.69403177 13.9891137,7.38063525 13.9891137,6.99449282 C13.9891137,6.60847849 13.6757172,6.29508197 13.2895748,6.29508197 Z" id="Path"></path>
            </g>
        </g>
    </g>
</svg>