<?xml version="1.0" encoding="UTF-8"?>
<svg width="20px" height="20px" viewBox="0 0 20 20" version="1.1" xmlns="http://www.w3.org/2000/svg" xmlns:xlink="http://www.w3.org/1999/xlink">
    <title>BB25DB75-3A44-4232-863D-F19BA26D6FEE@1x</title>
    <g id="mobile" stroke="none" stroke-width="1" fill="none" fill-rule="evenodd">
        <g id="Pemanen" transform="translate(-296.000000, -299.000000)" fill="#F9686A" fill-rule="nonzero">
            <g id="Shape" transform="translate(296.000000, 299.000000)">
                <path d="M16.4239749,-1.42108547e-14 L3.57041841,-1.42108547e-14 C1.59949791,0.00234309623 0.00234309623,1.59949791 -7.10542736e-14,3.57041841 L-7.10542736e-14,16.4239749 C0.00234309623,18.3948954 1.59949791,19.9920502 3.57041841,19.9943933 L16.4239749,19.9943933 C18.3948954,19.9920502 19.9920502,18.3948954 19.9943933,16.4239749 L19.9943933,3.57041841 C19.9920502,1.59949791 18.3948954,0.00234309623 16.4239749,-1.42108547e-14 Z M13.5676569,10.7112971 L10.7112971,10.7112971 L10.7112971,13.5676569 C10.7112971,13.9620502 10.39159,14.2817573 9.99719665,14.2817573 C9.60280335,14.2817573 9.28309623,13.9620502 9.28309623,13.5676569 L9.28309623,10.7112971 L6.42677824,10.7112971 C6.03238494,10.7112971 5.71267782,10.39159 5.71267782,9.99719665 C5.71267782,9.60280335 6.03238494,9.28309623 6.42677824,9.28309623 L9.28313808,9.28309623 L9.28313808,6.42677824 C9.28313808,6.03238494 9.60284519,5.71267782 9.99723849,5.71267782 C10.3916318,5.71267782 10.7112971,6.03238494 10.7112971,6.42677824 L10.7112971,9.28313808 L13.5676569,9.28313808 C13.9620502,9.28313808 14.2817573,9.60284519 14.2817573,9.99723849 C14.2817573,10.3916318 13.9620084,10.7112971 13.5676569,10.7112971 Z"></path>
            </g>
        </g>
    </g>
</svg>