<?xml version="1.0" encoding="UTF-8"?>
<svg width="16px" height="16px" viewBox="0 0 16 16" version="1.1" xmlns="http://www.w3.org/2000/svg" xmlns:xlink="http://www.w3.org/1999/xlink">
    <title>D0109E80-0994-4BCA-AE79-FACEF8E35094@1x</title>
    <g id="mobile" stroke="none" stroke-width="1" fill="none" fill-rule="evenodd">
        <g id="Login--username-salah" transform="translate(-319.000000, -360.000000)">
            <g id="ic/close" transform="translate(315.000000, 356.000000)">
                <rect id="Rectangle" x="0" y="0" width="24" height="24"></rect>
                <g id="cancel" transform="translate(4.000000, 4.000000)" fill="#233258" fill-opacity="0.696350524" fill-rule="nonzero">
                    <path d="M8.8839375,8.0000625 L15.8169687,1.067 C16.0610625,0.82290625 16.0610625,0.42715625 15.8169687,0.18309375 C15.572875,-0.06096875 15.177125,-0.061 14.9330625,0.18309375 L7.99999219,7.11615625 L1.06696875,0.18309375 C0.822875,-0.061 0.427125,-0.061 0.1830625,0.18309375 C-0.061,0.4271875 -0.06103125,0.8229375 0.1830625,1.067 L7.11609375,8.00002344 L0.1830625,14.9330937 C-0.06103125,15.1771875 -0.06103125,15.5729375 0.1830625,15.817 C0.30509375,15.9390312 0.4650625,16.0000234 0.62503125,16.0000234 C0.785,16.0000234 0.9449375,15.9390312 1.067,15.817 L7.99999219,8.88396875 L14.9330312,15.817 C15.0550625,15.9390312 15.2150312,16.0000234 15.375,16.0000234 C15.5349687,16.0000234 15.6949062,15.9390312 15.8169687,15.817 C16.0610625,15.5729062 16.0610625,15.1771562 15.8169687,14.9330937 L8.8839375,8.0000625 Z" id="Path"></path>
                </g>
            </g>
        </g>
    </g>
</svg>